<svg width="31" height="31" viewBox="0 0 31 31" fill="none" xmlns="http://www.w3.org/2000/svg">
<path d="M16.4184 17.0501L12.8525 20.5996C12.7072 20.7436 12.5919 20.9151 12.5132 21.104C12.4344 21.2928 12.3939 21.4954 12.3939 21.7C12.3939 21.9047 12.4344 22.1073 12.5132 22.2961C12.5919 22.485 12.7072 22.6564 12.8525 22.8005C12.9966 22.9458 13.1681 23.0611 13.357 23.1398C13.546 23.2185 13.7486 23.259 13.9533 23.259C14.1579 23.259 14.3606 23.2185 14.5495 23.1398C14.7384 23.0611 14.9099 22.9458 15.054 22.8005L21.2555 16.6006C21.3966 16.4532 21.5073 16.2793 21.5811 16.0891C21.7361 15.7117 21.7361 15.2884 21.5811 14.9111C21.5073 14.7208 21.3966 14.547 21.2555 14.3996L15.054 8.19961C14.9095 8.05509 14.7379 7.94046 14.549 7.86224C14.3601 7.78403 14.1577 7.74377 13.9533 7.74377C13.7488 7.74377 13.5464 7.78403 13.3575 7.86224C13.1687 7.94046 12.9971 8.05509 12.8525 8.19961C12.708 8.34413 12.5933 8.5157 12.5151 8.70452C12.4368 8.89335 12.3966 9.09573 12.3966 9.30011C12.3966 9.50449 12.4368 9.70687 12.5151 9.89569C12.5933 10.0845 12.708 10.2561 12.8525 10.4006L16.4184 13.9501H1.55036C1.13918 13.9501 0.744841 14.1134 0.454091 14.4041C0.163341 14.6947 0 15.089 0 15.5001C0 15.9112 0.163341 16.3054 0.454091 16.5961C0.744841 16.8868 1.13918 17.0501 1.55036 17.0501H16.4184ZM15.5036 0.000154524C12.6062 -0.0127783 9.76302 0.78633 7.29674 2.30684C4.83046 3.82735 2.83973 6.0084 1.55036 8.60261C1.36533 8.97259 1.33489 9.40089 1.46572 9.79331C1.59656 10.1857 1.87796 10.5101 2.24803 10.6951C2.61809 10.8801 3.0465 10.9105 3.43901 10.7797C3.83153 10.6489 4.15599 10.3676 4.34102 9.9976C5.32114 8.01876 6.81204 6.33748 8.65963 5.12751C10.5072 3.91754 12.6445 3.22277 14.8506 3.11501C17.0566 3.00724 19.2515 3.49039 21.2082 4.51452C23.165 5.53866 24.8128 7.06662 25.9812 8.9405C27.1496 10.8144 27.7963 12.9662 27.8545 15.1736C27.9126 17.381 27.3801 19.5639 26.312 21.4967C25.2439 23.4295 23.6789 25.0421 21.7788 26.1678C19.8787 27.2935 17.7123 27.8915 15.5036 27.9C13.1919 27.91 10.9241 27.2682 8.96063 26.0482C6.99715 24.8281 5.41752 23.0794 4.40303 21.0026C4.218 20.6326 3.89354 20.3512 3.50103 20.2204C3.10852 20.0896 2.68011 20.1201 2.31004 20.3051C1.93998 20.49 1.65858 20.8144 1.52774 21.2068C1.3969 21.5993 1.42735 22.0276 1.61238 22.3975C2.84155 24.8706 4.70926 26.9704 7.02233 28.4798C9.33539 29.9892 12.0098 30.8534 14.769 30.9829C17.5281 31.1125 20.2718 30.5027 22.7162 29.2167C25.1606 27.9308 27.2169 26.0152 28.6725 23.6683C30.1282 21.3213 30.9302 18.6282 30.9956 15.8674C31.0611 13.1067 30.3876 10.3786 29.0449 7.9653C27.7022 5.55203 25.7389 3.54122 23.3582 2.14086C20.9775 0.7405 18.2658 0.00145102 15.5036 0.000154524Z" fill="#FFF8F8"/>
</svg>
