<svg width="32" height="7" viewBox="0 0 32 7" fill="none" xmlns="http://www.w3.org/2000/svg">
<path d="M15.9091 0C15.2099 0 14.5263 0.205272 13.945 0.589857C13.3636 0.974441 12.9104 1.52107 12.6428 2.16061C12.3753 2.80015 12.3053 3.50388 12.4417 4.18282C12.5781 4.86175 12.9148 5.48539 13.4092 5.97487C13.9036 6.46436 14.5336 6.7977 15.2194 6.93275C15.9052 7.0678 16.616 6.99848 17.262 6.73358C17.908 6.46867 18.4602 6.02007 18.8486 5.44449C19.2371 4.86892 19.4444 4.19223 19.4444 3.5C19.4444 2.57174 19.072 1.6815 18.409 1.02513C17.746 0.36875 16.8467 0 15.9091 0ZM3.53535 0C2.83613 0 2.1526 0.205272 1.57122 0.589857C0.989832 0.974441 0.536697 1.52107 0.269114 2.16061C0.0015318 2.80015 -0.06848 3.50388 0.0679324 4.18282C0.204345 4.86175 0.541054 5.48539 1.03548 5.97487C1.52991 6.46436 2.15985 6.7977 2.84564 6.93275C3.53143 7.0678 4.24227 6.99848 4.88828 6.73358C5.53428 6.46867 6.08642 6.02007 6.47489 5.44449C6.86336 4.86892 7.07071 4.19223 7.07071 3.5C7.07071 2.57174 6.69823 1.6815 6.03523 1.02513C5.37222 0.36875 4.47299 0 3.53535 0ZM28.2828 0C27.5836 0 26.9001 0.205272 26.3187 0.589857C25.7373 0.974441 25.2842 1.52107 25.0166 2.16061C24.749 2.80015 24.679 3.50388 24.8154 4.18282C24.9518 4.86175 25.2885 5.48539 25.783 5.97487C26.2774 6.46436 26.9073 6.7977 27.5931 6.93275C28.2789 7.0678 28.9897 6.99848 29.6357 6.73358C30.2817 6.46867 30.8339 6.02007 31.2224 5.44449C31.6108 4.86892 31.8182 4.19223 31.8182 3.5C31.8182 2.57174 31.4457 1.6815 30.7827 1.02513C30.1197 0.36875 29.2205 0 28.2828 0Z" fill="black"/>
</svg>
