<svg width="18" height="30" viewBox="0 0 18 30" fill="none" xmlns="http://www.w3.org/2000/svg">
<path d="M6.89858 14.937L17.0074 4.85714C17.5393 4.32364 17.8378 3.60195 17.8378 2.8497C17.8378 2.09745 17.5393 1.37577 17.0074 0.842265C16.742 0.57538 16.4261 0.363547 16.0782 0.218986C15.7302 0.0744261 15.3569 0 14.98 0C14.603 0 14.2297 0.0744261 13.8818 0.218986C13.5338 0.363547 13.2179 0.57538 12.9525 0.842265L0.844685 12.9154C0.577033 13.1801 0.364593 13.495 0.219617 13.842C0.0746413 14.189 0 14.5611 0 14.937C0 15.3129 0.0746413 15.6851 0.219617 16.0321C0.364593 16.3791 0.577033 16.694 0.844685 16.9587L12.9525 29.1742C13.2193 29.4381 13.5358 29.6469 13.8837 29.7886C14.2316 29.9303 14.6041 30.0021 14.98 30C15.3558 30.0021 15.7283 29.9303 16.0762 29.7886C16.4242 29.6469 16.7406 29.4381 17.0074 29.1742C17.5393 28.6407 17.8378 27.919 17.8378 27.1668C17.8378 26.4145 17.5393 25.6928 17.0074 25.1593L6.89858 14.937Z" fill="black"/>
</svg>
